<?xml version="1.0" encoding="UTF-8" standalone="no"?>
<!-- Created with Inkscape (http://www.inkscape.org/) -->

<svg
   version="1.1"
   id="svg824"
   width="190"
   height="89"
   viewBox="0 0 190 89"
   sodipodi:docname="swordlogo2white.svg"
   inkscape:version="1.1.1 (3bf5ae0d25, 2021-09-20)"
   xmlns:inkscape="http://www.inkscape.org/namespaces/inkscape"
   xmlns:sodipodi="http://sodipodi.sourceforge.net/DTD/sodipodi-0.dtd"
   xmlns="http://www.w3.org/2000/svg"
   xmlns:svg="http://www.w3.org/2000/svg">
  <defs
     id="defs828" />
  <sodipodi:namedview
     id="namedview826"
     pagecolor="#ffffff"
     bordercolor="#666666"
     borderopacity="1.0"
     inkscape:pageshadow="2"
     inkscape:pageopacity="0.0"
     inkscape:pagecheckerboard="0"
     showgrid="false"
     inkscape:zoom="2.9815789"
     inkscape:cx="116.88438"
     inkscape:cy="-20.291262"
     inkscape:window-width="1920"
     inkscape:window-height="1017"
     inkscape:window-x="1912"
     inkscape:window-y="-8"
     inkscape:window-maximized="1"
     inkscape:current-layer="g1008" />
  <g
     inkscape:groupmode="layer"
     inkscape:label="Image"
     id="g830">
    <g
       id="g1008"
       transform="matrix(9.3689708,0,0,9.9185031,-1591.2514,-760.85606)">
      <path
         style="fill:#8c8c8c;fill-opacity:1;stroke-width:0.128558"
         d="m 187.55163,85.400153 c 0,-0.02924 0.0924,-0.14011 0.20543,-0.246386 0.18618,-0.175126 0.19033,-0.170146 0.0443,0.05316 -0.15336,0.234523 -0.24975,0.309105 -0.24975,0.193229 z m -4.8349,-0.183812 c 0.0847,-0.04067 0.18599,-0.03567 0.22499,0.01112 0.039,0.04678 -0.0303,0.08006 -0.15407,0.07395 -0.13675,-0.0068 -0.16456,-0.04012 -0.0709,-0.08506 z m 2.64366,-0.08682 c 0,-0.100647 0.10084,-0.192104 0.22409,-0.203239 0.18251,-0.01649 0.19799,0.01746 0.0834,0.182994 -0.17475,0.252531 -0.30754,0.261273 -0.30754,0.02025 z m 0.6652,-0.384311 c 0.12892,-0.102951 0.0591,-0.126545 -0.26082,-0.08808 -0.2403,0.02889 -0.40886,-0.0019 -0.37459,-0.06841 0.0343,-0.06652 0.2441,-0.120947 0.46626,-0.120947 0.24392,0 0.40464,-0.06971 0.40572,-0.175989 0.001,-0.117247 0.0396,-0.105498 0.1152,0.0352 0.11609,0.216197 -0.13529,0.565663 -0.40355,0.56101 -0.0684,-0.0012 -0.0451,-0.06543 0.0518,-0.142774 z m -16.01662,-0.12352 c -0.0362,-0.07021 0.0399,-0.0945 0.16915,-0.05397 0.2741,0.08597 0.30875,0.181636 0.0658,0.181636 -0.093,0 -0.19875,-0.05745 -0.23493,-0.127661 z m 2.81744,-0.088 C 172.70109,84.42 172.655,84.326981 172.724,84.326981 c 0.069,0 0.19121,0.09503 0.27158,0.211187 0.1828,0.26417 0.12529,0.262648 -0.16917,-0.0045 z m 5.04158,0.07649 c -0.0411,-0.07981 0.006,-0.103412 0.11046,-0.05533 0.20337,0.0936 0.24057,0.194511 0.0717,0.194511 -0.0608,0 -0.14273,-0.06263 -0.18218,-0.139179 z m 1.56189,0.043 c 0.0847,-0.04067 0.18599,-0.03567 0.22499,0.01111 0.039,0.04678 -0.0303,0.08006 -0.15407,0.07395 -0.13675,-0.0068 -0.16456,-0.04012 -0.0709,-0.08506 z m -0.46251,-0.291 c -0.14602,-0.223304 -0.14186,-0.228284 0.0443,-0.05316 0.19554,0.183926 0.25772,0.299542 0.16111,0.299542 -0.0244,0 -0.11682,-0.110874 -0.20543,-0.246385 z m 8.91465,0.07204 c 0.13126,-0.194265 0.1181,-0.251641 -0.088,-0.383958 -0.14081,-0.09038 -0.24235,-0.09941 -0.24235,-0.02155 0,0.07371 0.0541,0.166219 0.12032,0.205582 0.0662,0.03936 0.053,0.0535 -0.0294,0.03141 -0.0823,-0.02209 -0.13864,-0.165167 -0.12517,-0.317955 0.0144,-0.162999 -0.0463,-0.277796 -0.14673,-0.277796 -0.0942,0 -0.17124,0.0528 -0.17124,0.117327 0,0.06453 -0.061,0.117326 -0.13558,0.117326 -0.0774,0 -0.0455,-0.119356 0.0744,-0.278265 0.20847,-0.276289 0.21242,-0.275782 0.55637,0.07134 0.19053,0.192281 0.40004,0.309854 0.46558,0.261274 0.0724,-0.05365 0.0682,0.02583 -0.0106,0.202405 -0.0713,0.159902 -0.19548,0.3381 -0.27583,0.395995 -0.10602,0.07639 -0.10377,0.04261 0.008,-0.123132 z m -14.46804,-0.206762 c -0.0637,-0.200656 -0.0502,-0.216828 0.0657,-0.07881 0.0802,0.0955 0.11629,0.209109 0.0802,0.252457 -0.0361,0.04335 -0.10178,-0.03479 -0.14587,-0.173643 z m 1.4598,0.09952 c -0.1058,-0.08201 -0.12028,-0.137341 -0.0363,-0.138636 0.0769,-0.0012 0.17245,0.0612 0.21235,0.138636 0.0901,0.174796 0.0494,0.174796 -0.17608,0 z m 3.47048,-0.09952 c -0.0637,-0.200656 -0.0502,-0.216828 0.0657,-0.07881 0.0802,0.0955 0.11629,0.209109 0.0802,0.252457 -0.0361,0.04335 -0.10178,-0.03479 -0.14586,-0.173643 z m 8.22512,0.129691 c -0.0314,-0.06084 0.0409,-0.110622 0.16053,-0.110622 0.11965,0 0.19189,0.04978 0.16054,0.110622 -0.0313,0.06084 -0.10359,0.110622 -0.16054,0.110622 -0.0569,0 -0.12918,-0.04978 -0.16053,-0.110622 z m -6.79467,-0.123413 c 0.0807,-0.03906 0.21276,-0.03906 0.29347,0 0.0807,0.03906 0.0147,0.07101 -0.14674,0.07101 -0.16141,0 -0.22744,-0.03196 -0.14673,-0.07101 z m 2.25851,-1.004259 0.0575,-1.084767 0.0363,0.971585 c 0.02,0.534371 -0.006,1.022516 -0.0575,1.084767 -0.0516,0.06225 -0.0679,-0.374963 -0.0363,-0.971585 z m 2.0378,-0.02883 c 0,-0.658201 0.0202,-0.927464 0.0449,-0.598364 0.0247,0.3291 0.0247,0.867628 0,1.196728 -0.0247,0.329101 -0.0449,0.05984 -0.0449,-0.598364 z m 1.7701,0.821284 c 0,-0.141965 0.0132,-0.258118 0.0294,-0.258118 0.0162,0 0.0812,0.116153 0.14459,0.258118 0.0827,0.185358 0.0744,0.258118 -0.0294,0.258118 -0.0795,0 -0.14459,-0.116153 -0.14459,-0.258118 z m -13.04007,-0.89168 c 4.2e-4,-0.619483 0.0211,-0.855394 0.0459,-0.524247 0.0248,0.331148 0.0245,0.837997 -7.8e-4,1.126333 -0.0252,0.288336 -0.0455,0.0174 -0.0451,-0.602086 z m 1.05649,0 c 4.2e-4,-0.619483 0.0211,-0.855394 0.0459,-0.524247 0.0248,0.331148 0.0245,0.837997 -7.8e-4,1.126333 -0.0252,0.288336 -0.0455,0.0174 -0.0451,-0.602086 z m 2.92167,0.633562 c 0,-0.271023 0.0242,-0.381897 0.0537,-0.246385 0.0295,0.135512 0.0295,0.357259 0,0.492771 -0.0295,0.135512 -0.0537,0.02464 -0.0537,-0.246386 z m 3.76941,-0.633562 c 4.7e-4,-0.619483 0.0211,-0.855394 0.0459,-0.524247 0.0248,0.331148 0.0245,0.837997 -8.2e-4,1.126333 -0.0252,0.288336 -0.0455,0.0174 -0.045,-0.602086 z m -1.80171,-0.591903 c -0.0319,-0.867594 -0.0165,-1.527336 0.0343,-1.466093 0.0508,0.06124 0.0769,0.771093 0.058,1.577444 l -0.0343,1.466093 z m 4.39786,1.35689 c -0.0426,-0.08259 -0.0522,-0.180354 -0.0214,-0.217259 0.0308,-0.03691 0.0872,0.03066 0.12546,0.150158 0.0794,0.24809 0.0117,0.291728 -0.10403,0.0671 z m -10.81327,-1.04657 c 4.2e-4,-0.619483 0.0211,-0.855394 0.0459,-0.524247 0.0248,0.331147 0.0245,0.837997 -7.8e-4,1.126333 -0.0252,0.288336 -0.0455,0.0174 -0.0451,-0.602086 z m 15.61365,0.775296 c -0.31057,-0.15029 -0.43713,-0.374373 -0.27805,-0.492293 0.0656,-0.04864 0.1193,0.01408 0.1193,0.139372 0,0.388408 0.23422,0.0764 0.24404,-0.32509 0.006,-0.227861 0.0366,-0.294694 0.0777,-0.167681 0.0377,0.116153 0.15235,0.290538 0.25486,0.387523 0.16387,0.155034 0.15929,0.164921 -0.0379,0.08185 -0.18616,-0.07843 -0.21298,-0.04258 -0.15772,0.210842 0.0366,0.167932 0.0583,0.301314 0.0482,0.296406 -0.0101,-0.0049 -0.13181,-0.06382 -0.27047,-0.130925 z m -2.62388,-0.282525 c -0.1058,-0.08201 -0.12028,-0.137341 -0.0363,-0.138636 0.0769,-0.0012 0.17245,0.0612 0.21236,0.138636 0.0901,0.174796 0.0494,0.174796 -0.17608,0 z m 0.46955,0 c -0.15175,-0.117617 -0.14865,-0.136778 0.0224,-0.138636 0.10918,-0.0012 0.23115,0.0612 0.27105,0.138636 0.0918,0.178185 -0.0636,0.178185 -0.29346,0 z m 0.68231,-0.09618 c 0.0847,-0.04067 0.18599,-0.03567 0.22499,0.01111 0.039,0.04678 -0.0303,0.08006 -0.15407,0.07395 -0.13675,-0.0068 -0.16456,-0.04012 -0.0709,-0.08506 z M 176.3144,82.496686 c 0,-0.348459 0.0229,-0.49101 0.0509,-0.316781 0.028,0.17423 0.028,0.459333 0,0.633562 -0.028,0.17423 -0.0509,0.03168 -0.0509,-0.316781 z m -1.67539,-0.422375 c -0.1058,-0.082 -0.12028,-0.13734 -0.0363,-0.138635 0.0769,-0.0012 0.17245,0.0612 0.21236,0.138635 0.0901,0.174797 0.0494,0.174797 -0.17608,0 z m 8.68667,0 c -0.1058,-0.082 -0.12028,-0.13734 -0.0363,-0.138635 0.0769,-0.0012 0.17246,0.0612 0.21236,0.138635 0.0901,0.174797 0.0494,0.174797 -0.17608,0 z m 5.34113,-0.140791 c -0.20076,-0.103469 -0.20501,-0.122434 -0.0293,-0.130896 0.19374,-0.0093 0.26457,-0.291616 0.21444,-0.854645 -0.0156,-0.175336 -2.3e-4,-0.178111 0.0908,-0.01634 0.0614,0.109081 0.0682,0.367795 0.0156,0.587767 -0.0517,0.216107 -0.0636,0.429368 -0.0264,0.473915 0.0866,0.103872 0.0259,0.09019 -0.26507,-0.0598 z m -11.09312,-0.149101 c 0,-0.082 0.0528,-0.109944 0.11739,-0.06209 0.0646,0.04786 0.11739,0.114953 0.11739,0.1491 0,0.03415 -0.0528,0.06209 -0.11739,0.06209 -0.0646,0 -0.11739,-0.06709 -0.11739,-0.1491 z m 12.10069,0.109261 c 0.0269,-0.02191 0.15456,-0.132785 0.28369,-0.246385 0.21717,-0.191055 0.22269,-0.188067 0.0737,0.03984 -0.0886,0.135512 -0.21627,0.246385 -0.28369,0.246385 -0.0674,0 -0.10057,-0.01793 -0.0737,-0.03984 z m -16.56141,-0.241743 c -0.1058,-0.08201 -0.12028,-0.13734 -0.0363,-0.138636 0.0769,-0.0012 0.17246,0.0612 0.21236,0.138636 0.0901,0.174796 0.0494,0.174796 -0.17608,0 z m 16.19947,-0.264965 c 0,-0.07744 0.0528,-0.179948 0.11739,-0.227806 0.0646,-0.04786 0.11738,-0.02366 0.11738,0.05378 0,0.07744 -0.0528,0.179948 -0.11738,0.227805 -0.0646,0.04786 -0.11739,0.02366 -0.11739,-0.05378 z m -18.93069,-0.456464 c 0.0796,-0.09622 0.17435,-0.139478 0.21049,-0.09613 0.0361,0.04335 -0.029,0.122073 -0.14477,0.174945 -0.1673,0.07641 -0.18079,0.06023 -0.0657,-0.07881 z m 9.019,-0.305382 c 0.0441,-0.138852 0.10972,-0.216991 0.14586,-0.173643 0.0361,0.04335 7e-5,0.156954 -0.0801,0.252457 -0.11594,0.138014 -0.12942,0.121842 -0.0657,-0.07881 z m 9.69342,-0.09952 c 0,-0.116153 0.0454,-0.3379 0.10088,-0.49277 0.0636,-0.177488 0.10089,-0.203512 0.10089,-0.0704 0,0.116153 -0.0454,0.3379 -0.10089,0.49277 -0.0636,0.177488 -0.10088,0.203512 -0.10088,0.0704 z m 0.33745,-1.490044 c 9.9e-4,-0.148418 0.0554,-0.364885 0.12096,-0.481038 0.087,-0.154231 0.0979,-0.09728 0.0404,0.211188 -0.0966,0.51768 -0.16374,0.630058 -0.16134,0.26985 z m 0.27392,-1.129801 c 0.0577,-0.374582 -0.13148,-0.79567 -0.30107,-0.669964 -0.0769,0.05702 -0.0948,0.03001 -0.0446,-0.06743 0.25453,-0.493937 0.61034,0.185305 0.39931,0.762276 -0.0919,0.25128 -0.096,0.249393 -0.0537,-0.02488 z"
         id="path1012" />
      <path
         style="fill:#f9f9f9;fill-opacity:1;stroke-width:0.128558"
         d="m 182.91482,85.52879 c -0.19369,-0.106372 -0.2696,-0.198548 -0.16869,-0.204837 0.20761,-0.01294 0.88985,-0.812529 0.7927,-0.929051 -0.0348,-0.04169 -0.19588,-0.0153 -0.35805,0.05865 -0.45419,0.207114 -0.55943,-0.04325 -0.55943,-1.330948 v -1.14806 l 0.55759,-0.21592 c 0.78779,-0.305061 0.85106,-0.200107 0.85106,1.411696 0,1.184566 -0.0352,1.415201 -0.29841,1.953843 -0.33177,0.678977 -0.32412,0.675187 -0.81677,0.404631 z m 0.54398,-3.491925 c -0.23054,-0.276504 -0.3679,0.07964 -0.3679,0.953905 0,0.710383 0.0433,0.928992 0.20543,1.038298 0.18597,0.125345 0.20873,0.04396 0.24028,-0.859309 0.0192,-0.548771 -0.0159,-1.058574 -0.0778,-1.132894 z m -12.72863,3.064465 c -0.12205,-0.306968 -0.27975,-0.49277 -0.41823,-0.49277 -0.42403,0 -0.49498,-0.317119 -0.46031,-2.057289 l 0.0332,-1.665373 0.55346,-0.246216 c 0.54826,-0.2439 0.55516,-0.243313 0.73368,0.06237 0.25877,0.443114 0.26225,3.455213 0.004,3.574014 -0.26002,0.119671 -0.21438,0.416719 0.11121,0.723896 0.21614,0.203914 0.25394,0.311056 0.15261,0.432593 -0.24441,0.293134 -0.51095,0.168744 -0.70973,-0.331222 z m 0.01,-2.616513 c -0.0274,-1.317001 -0.0652,-1.607234 -0.20946,-1.607234 -0.14364,0 -0.18224,0.281506 -0.20952,1.528361 -0.0226,1.030714 0.0121,1.594232 0.10654,1.730663 0.26495,0.382885 0.34581,-0.04463 0.31244,-1.65179 z m 16.74824,2.527996 c -0.0943,-0.35637 0.0726,-0.586043 0.33733,-0.464201 0.26152,0.120365 0.24747,0.375817 -0.0322,0.585298 -0.19487,0.145958 -0.23911,0.128399 -0.30513,-0.121097 z m -2.74629,-0.322991 c -0.10914,-0.157717 -0.0786,-0.341984 0.14362,-0.866399 0.30624,-0.722708 0.51643,-0.66063 0.29877,0.08824 -0.1204,0.414221 -0.10682,0.488385 0.13179,0.72013 l 0.26602,0.258353 h -0.35079 c -0.19294,0 -0.41317,-0.09014 -0.48941,-0.200321 z m -8.71938,-0.302532 c -0.11136,-0.293119 -0.10529,-0.38654 0.0319,-0.490615 0.25044,-0.190043 0.31131,-0.164032 0.38273,0.163552 0.094,0.431227 0.36747,0.249337 0.41046,-0.273029 0.0418,-0.507933 -0.17603,-0.695496 -0.53793,-0.463193 -0.31756,0.203836 -0.49671,-0.05601 -0.49671,-0.720459 0,-0.501507 0.0362,-0.559691 0.4989,-0.801166 0.4956,-0.258667 0.50022,-0.258397 0.69957,0.04097 0.19126,0.287225 0.18934,0.307611 -0.0411,0.434735 -0.18447,0.101787 -0.26814,0.07678 -0.35324,-0.105594 -0.19109,-0.409537 -0.33461,-0.263439 -0.33461,0.340615 0,0.606599 0.0329,0.624635 0.61465,0.337219 0.15244,-0.07531 0.23379,-0.0061 0.32282,0.274776 0.24602,0.776098 0.16103,1.049491 -0.41896,1.34767 -0.66524,0.34201 -0.61393,0.347644 -0.77847,-0.08548 z m -4.06799,-0.02584 c -0.0606,-0.13591 -0.12688,-0.77301 -0.14719,-1.415777 -0.0283,-0.894363 0.002,-1.197688 0.12988,-1.292308 0.28768,-0.213247 0.35409,-0.01609 0.35409,1.051303 0,1.218926 0.0646,1.481517 0.36472,1.481517 0.19773,0 0.22221,-0.113224 0.22221,-1.027778 0,-0.565279 -0.0581,-1.097513 -0.1292,-1.182743 -0.094,-0.112758 -0.0588,-0.181756 0.1292,-0.253331 0.14213,-0.0541 0.30121,-0.04456 0.35351,0.02121 0.0523,0.06577 0.11302,0.704961 0.13492,1.420429 0.0309,1.008061 0.003,1.317572 -0.1218,1.375147 -0.0889,0.04086 -0.23077,0.0055 -0.31531,-0.07869 -0.10954,-0.10904 -0.22108,-0.109738 -0.38826,-0.0024 -0.32784,0.210437 -0.45945,0.188781 -0.58677,-0.09655 z m 2.05145,0.02441 c -0.0392,-0.122487 -0.0713,-0.710705 -0.0713,-1.307152 v -1.084449 l 0.52623,-0.233918 c 0.4704,-0.209104 0.54512,-0.211259 0.70432,-0.02031 0.10368,0.124352 0.1781,0.465201 0.1781,0.815729 0,0.56629 -0.0279,0.617236 -0.46955,0.856075 -0.5423,0.293298 -0.59872,0.56901 -0.16496,0.806049 0.27332,0.149364 0.28236,0.176943 0.088,0.268669 -0.37142,0.175327 -0.71668,0.131374 -0.79093,-0.100691 z m 0.84488,-1.792627 c -0.0249,-0.41093 -0.089,-0.589315 -0.2118,-0.589315 -0.12995,0 -0.18545,0.196049 -0.21183,0.748215 -0.0345,0.722579 -0.0273,0.742771 0.21181,0.589315 0.20196,-0.129634 0.24097,-0.267441 0.21182,-0.748215 z m 3.03464,1.910031 c -0.0343,-0.06649 -0.0725,-0.728975 -0.085,-1.472194 -0.0203,-1.205819 0.004,-1.385978 0.22743,-1.67335 l 0.25016,-0.322043 v 0.308131 c 0,0.169472 0.066,0.309101 0.14673,0.310287 0.10957,0.0016 0.10697,0.03239 -0.0103,0.121509 -0.11717,0.08908 -0.14815,0.45442 -0.12214,1.440127 0.0297,1.125446 0.007,1.327253 -0.15487,1.364597 -0.10435,0.0241 -0.21777,-0.01058 -0.25203,-0.07706 z m 1.17378,-0.152174 c -0.15509,-0.205532 -0.19428,-0.558872 -0.19428,-1.751585 0,-0.956009 -0.0476,-1.529415 -0.13222,-1.59213 -0.0793,-0.05876 0.0202,-0.174869 0.24825,-0.289892 0.20926,-0.105532 0.38762,-0.191942 0.39635,-0.192022 0.009,-7.9e-5 0.0159,0.807668 0.0159,1.794995 v 1.795139 l 0.39815,0.154447 c 0.37935,0.147151 0.38489,0.158702 0.11739,0.24456 -0.45455,0.145891 -0.64349,0.109523 -0.84951,-0.163512 z m 1.63779,0.03477 c -0.0392,-0.122487 -0.0713,-0.710705 -0.0713,-1.307152 v -1.084449 l 0.52622,-0.233918 c 0.75442,-0.335353 0.88243,-0.144343 0.88243,1.316754 v 1.12346 l -0.40709,0.204004 c -0.52849,0.264842 -0.84161,0.258548 -0.93031,-0.0187 z m 0.86785,-1.248856 c 0,-0.75596 -0.0441,-1.052858 -0.16461,-1.108322 -0.26318,-0.121127 -0.30494,0.03135 -0.30494,1.113301 0,0.689061 0.0477,1.041252 0.14673,1.083868 0.27238,0.117184 0.32282,-0.05295 0.32282,-1.088847 z m 3.7564,1.140588 c 0,-0.104598 0.0569,-0.385849 0.12638,-0.625003 0.17148,-0.58998 0.50745,-0.465353 0.39537,0.146662 -0.0524,0.286144 -0.026,0.461102 0.082,0.543159 0.10796,0.08204 0.0363,0.121743 -0.22223,0.123204 -0.24301,0.0014 -0.3815,-0.06688 -0.3815,-0.188022 z m 0.73548,-0.197313 c -0.0311,-0.09697 -0.0232,-0.335404 0.0175,-0.529859 0.0613,-0.292914 0.12369,-0.338591 0.3638,-0.266313 0.23145,0.06967 0.36217,-0.01078 0.64914,-0.399551 0.27337,-0.370336 0.42807,-0.471033 0.64666,-0.420917 0.2257,0.05175 0.28732,0.152931 0.28732,0.471837 0,0.482671 -0.17426,0.536692 -0.28768,0.08918 -0.0603,-0.237935 -0.0966,-0.264217 -0.14572,-0.105594 -0.036,0.116153 -0.2008,0.385417 -0.36623,0.598364 -0.31774,0.409001 -0.2797,0.487094 0.11413,0.234302 0.21418,-0.137481 0.23036,-0.119759 0.16067,0.175989 -0.0481,0.204345 -0.0386,0.262233 0.0252,0.152886 0.0815,-0.139739 0.14738,-0.136752 0.31986,0.0145 0.18861,0.165413 0.0892,0.188575 -0.75548,0.175979 -0.66126,-0.0099 -0.99075,-0.07095 -1.02914,-0.190809 z m 1.81519,-0.194257 c -0.11161,-0.07491 -0.20293,-0.190478 -0.20293,-0.256816 0,-0.142585 0.44681,-0.02343 0.53199,0.141872 0.0969,0.188056 -0.11162,0.260895 -0.32906,0.114944 z m 0.26662,-0.474189 c 0,-0.129059 0.0568,-0.21195 0.1262,-0.184202 0.0694,0.02775 0.12619,0.110639 0.12619,0.184202 0,0.07356 -0.0568,0.156455 -0.12619,0.184203 -0.0694,0.02775 -0.1262,-0.05514 -0.1262,-0.184203 z M 188.2853,83.1074 c -0.20439,-0.09892 -0.18387,-0.329131 0.0293,-0.329131 0.0968,0 0.17608,0.09504 0.17608,0.211188 0,0.116153 -0.0132,0.206185 -0.0294,0.200072 -0.0161,-0.0061 -0.0954,-0.04307 -0.17608,-0.08213 z m -0.35497,-0.972525 c -0.25285,-0.291318 -0.25517,-0.311231 -0.044,-0.377454 0.16975,-0.05324 0.3686,-0.594223 0.83389,-2.268598 0.33604,-1.209277 0.6673,-2.240431 0.73613,-2.291451 0.12179,-0.09028 0.0759,0.310186 -0.0977,0.852897 -0.053,0.165787 -0.022,0.202708 0.11689,0.138808 0.10528,-0.04845 0.18915,-0.0164 0.18915,0.07228 0,0.08764 -0.12486,0.216274 -0.27746,0.285861 -0.43277,0.197345 -0.6091,0.94205 -0.19209,0.811255 0.35843,-0.112418 0.24802,0.329969 -0.12313,0.493353 -0.2084,0.09174 -0.50807,1.096149 -0.32705,1.096149 0.0631,0 0.0318,0.09956 -0.0697,0.221244 -0.26013,0.311993 -0.22899,0.6734 0.0721,0.836505 0.41558,0.225146 0.36501,0.424859 -0.10913,0.430989 -0.29824,0.0039 -0.52722,-0.09379 -0.70779,-0.301842 z m 1.55774,-0.343026 c -0.0404,-0.07834 -0.0391,-0.272181 0.003,-0.430762 0.0895,-0.338379 0.44614,-0.312402 0.50218,0.03658 0.0443,0.275953 -0.39096,0.61565 -0.50509,0.39418 z m -1.65986,-2.774772 c -0.16702,-0.06677 -0.0707,-0.559919 0.12714,-0.650977 0.24043,-0.110657 0.449,0.131041 0.37016,0.428963 -0.0707,0.267099 -0.21896,0.333293 -0.4973,0.222014 z m 1.7777,-2.152054 c 0.0399,-0.07743 0.0958,-0.140791 0.12431,-0.140791 0.0285,0 0.0518,0.06336 0.0518,0.140791 0,0.07744 -0.0559,0.140792 -0.12432,0.140792 -0.0684,0 -0.0917,-0.06336 -0.0518,-0.140792 z"
         id="path1010" />
    </g>
  </g>
</svg>
